<svg xmlns="http://www.w3.org/2000/svg" width="1024" height="1024" viewBox="0 0 1024 1024" fill="none">
  <defs>
    <linearGradient id="bg" x1="120" y1="120" x2="920" y2="920" gradientUnits="userSpaceOnUse">
      <stop offset="0" stop-color="#0F4C81"/>
      <stop offset="1" stop-color="#0DAA80"/>
    </linearGradient>
    <linearGradient id="accent" x1="300" y1="260" x2="730" y2="730" gradientUnits="userSpaceOnUse">
      <stop offset="0" stop-color="#F7FBFF"/>
      <stop offset="1" stop-color="#CDEEFF"/>
    </linearGradient>
  </defs>

  <rect x="64" y="64" width="896" height="896" rx="220" fill="url(#bg)"/>

  <circle cx="512" cy="512" r="330" stroke="#9AD9F3" stroke-opacity="0.22" stroke-width="28"/>
  <circle cx="512" cy="512" r="248" stroke="#9AD9F3" stroke-opacity="0.18" stroke-width="20"/>

  <line x1="290" y1="392" x2="734" y2="392" stroke="#D9F4FF" stroke-opacity="0.58" stroke-width="26" stroke-linecap="round"/>
  <line x1="310" y1="512" x2="714" y2="512" stroke="#D9F4FF" stroke-opacity="0.48" stroke-width="22" stroke-linecap="round"/>
  <line x1="336" y1="632" x2="688" y2="632" stroke="#D9F4FF" stroke-opacity="0.40" stroke-width="18" stroke-linecap="round"/>

  <path d="M350 286V742" stroke="url(#accent)" stroke-width="90" stroke-linecap="round"/>
  <path d="M350 286H518C623 286 693 350 693 437C693 524 623 588 518 588H350" stroke="url(#accent)" stroke-width="90" stroke-linecap="round" stroke-linejoin="round"/>
  <path d="M508 588L710 756" stroke="url(#accent)" stroke-width="90" stroke-linecap="round"/>

  <circle cx="772" cy="272" r="46" fill="#F6C453"/>
  <circle cx="772" cy="272" r="18" fill="#FFF2CC"/>
</svg>
